<?xml version="1.0" encoding="utf-8"?>
<!-- Generator: Adobe Illustrator 22.0.1, SVG Export Plug-In . SVG Version: 6.00 Build 0)  -->
<svg version="1.1" id="圖層_1" xmlns="http://www.w3.org/2000/svg" xmlns:xlink="http://www.w3.org/1999/xlink" x="0px" y="0px"
	 viewBox="0 0 25 25" style="enable-background:new 0 0 25 25;" xml:space="preserve">
<style type="text/css">
	.st0{fill:#03A9F4;}
	.st1{fill:#FAFAFA;}
</style>
<title>022-skype</title>
<desc>Created with Sketch.</desc>
<g id="Symbol">
	<g id="Icons_x2F_Elements_x2F_Skype">
		<g id="_x30_22-skype">
			<path id="Shape" class="st0" d="M22.1,12.6c0-5.2-4.3-9.4-9.5-9.4c-0.6,0-1.1,0-1.6,0.1C10.1,2.8,9.1,2.5,8,2.5
				C5,2.5,2.5,4.9,2.5,8c0,1,0.3,1.9,0.8,2.8c-0.1,0.6-0.2,1.2-0.2,1.9c0,5.2,4.3,9.4,9.5,9.4c0.6,0,1.2-0.1,1.7-0.2
				c0.8,0.4,1.7,0.6,2.6,0.6c3.1,0,5.5-2.4,5.5-5.5c0-0.9-0.2-1.7-0.6-2.4C22.1,14,22.1,13.3,22.1,12.6z"/>
			<path id="Shape_1_" class="st1" d="M17.5,17.1c-0.4,0.6-1.1,1.1-1.9,1.4c-0.8,0.3-1.8,0.5-3,0.5c-1.4,0-2.5-0.2-3.4-0.7
				C8.5,18,8,17.6,7.6,17C7.2,16.4,7,15.8,7,15.3c0-0.3,0.1-0.6,0.4-0.9C7.6,14.2,8,14,8.4,14c0.3,0,0.6,0.1,0.8,0.3
				c0.2,0.2,0.4,0.5,0.6,0.8c0.2,0.4,0.4,0.7,0.5,1c0.2,0.2,0.5,0.5,0.8,0.6c0.3,0.2,0.8,0.2,1.4,0.2c0.8,0,1.4-0.2,1.9-0.5
				c0.5-0.3,0.7-0.7,0.7-1.2c0-0.4-0.1-0.7-0.4-0.9c-0.3-0.2-0.6-0.4-1-0.6c-0.4-0.1-1-0.3-1.8-0.4c-1-0.2-1.8-0.5-2.5-0.7
				c-0.7-0.3-1.2-0.7-1.6-1.2C7.5,11,7.2,10.3,7.2,9.6c0-0.7,0.2-1.4,0.6-1.9c0.4-0.5,1-1,1.9-1.3C10.5,6.1,11.5,6,12.5,6
				c0.9,0,1.6,0.1,2.2,0.3c0.6,0.2,1.2,0.5,1.6,0.8c0.4,0.3,0.7,0.7,0.9,1c0.2,0.4,0.3,0.7,0.3,1.1c0,0.3-0.1,0.6-0.4,0.9
				c-0.3,0.3-0.6,0.4-1,0.4c-0.4,0-0.6-0.1-0.8-0.3c-0.2-0.2-0.4-0.4-0.6-0.7c-0.2-0.4-0.5-0.8-0.9-1c-0.3-0.2-0.9-0.4-1.6-0.4
				c-0.7,0-1.2,0.1-1.7,0.4c-0.4,0.3-0.6,0.6-0.6,0.9c0,0.2,0.1,0.4,0.2,0.5c0.1,0.2,0.3,0.3,0.6,0.4c0.2,0.1,0.5,0.2,0.8,0.3
				c0.3,0.1,0.7,0.2,1.3,0.3c0.8,0.2,1.5,0.3,2.1,0.5c0.6,0.2,1.2,0.4,1.6,0.7c0.5,0.3,0.8,0.7,1.1,1.1c0.3,0.5,0.4,1,0.4,1.7
				C18.2,15.8,17.9,16.5,17.5,17.1z"/>
		</g>
	</g>
</g>
</svg>
